HIERARCHY
ROOT root
{
	OFFSET 0.000000 0.000000 0.000000
	CHANNELS 6 Xposition Yposition Zposition Zrotation Yrotation Xrotation
	JOINT lhip
	{
		OFFSET 0.058581 -0.082280 -0.017664
		CHANNELS 3 Zrotation Yrotation Xrotation
		JOINT lknee
		{
			OFFSET 0.043451 -0.386469 0.008037
			CHANNELS 3 Zrotation Yrotation Xrotation
			JOINT lankle
			{
				OFFSET -0.014790 -0.426874 -0.037428
				CHANNELS 3 Zrotation Yrotation Xrotation
				JOINT ltoe
				{
					OFFSET 0.041054 -0.060286 0.122042
					CHANNELS 3 Zrotation Yrotation Xrotation
					End Site
					{
						OFFSET 0.000000 0.000000 0.000000
					}
				}
			}
		}
	}
	JOINT rhip
	{
		OFFSET -0.060310 -0.090513 -0.013543
		CHANNELS 3 Zrotation Yrotation Xrotation
		JOINT rknee
		{
			OFFSET -0.043257 -0.383688 -0.004843
			CHANNELS 3 Zrotation Yrotation Xrotation
			JOINT rankle
			{
				OFFSET 0.019056 -0.420046 -0.034562
				CHANNELS 3 Zrotation Yrotation Xrotation
				JOINT rtoe
				{
					OFFSET -0.034840 -0.062106 0.130323
					CHANNELS 3 Zrotation Yrotation Xrotation
					End Site
					{
						OFFSET 0.000000 0.000000 0.000000
					}
				}
			}
		}
	}
	JOINT lowerback
	{
		OFFSET 0.004439 0.124404 -0.038385
		CHANNELS 3 Zrotation Yrotation Xrotation
		JOINT upperback
		{
			OFFSET 0.004488 0.137956 0.026820
			CHANNELS 3 Zrotation Yrotation Xrotation
			JOINT chest
			{
				OFFSET -0.002265 0.056032 0.002855
				CHANNELS 3 Zrotation Yrotation Xrotation
				JOINT lowerneck
				{
					OFFSET -0.013390 0.211636 -0.033468
					CHANNELS 3 Zrotation Yrotation Xrotation
					JOINT upperneck
					{
						OFFSET 0.010113 0.088937 0.050410
						CHANNELS 3 Zrotation Yrotation Xrotation
						End Site
						{
							OFFSET 0.000000 0.000000 0.000000
						}
					}
				}
				JOINT lclavicle
				{
					OFFSET 0.071702 0.114000 -0.018898
					CHANNELS 3 Zrotation Yrotation Xrotation
					JOINT lshoulder
					{
						OFFSET 0.122921 0.045205 -0.019046
						CHANNELS 3 Zrotation Yrotation Xrotation
						JOINT lelbow
						{
							OFFSET 0.255332 -0.015649 -0.022946
							CHANNELS 3 Zrotation Yrotation Xrotation
							JOINT lwrist
							{
								OFFSET 0.265709 0.012698 -0.007375
								CHANNELS 3 Zrotation Yrotation Xrotation
								End Site
								{
									OFFSET 0.000000 0.000000 0.000000
								}
							}
						}
					}
				}
				JOINT rclavicle
				{
					OFFSET -0.082954 0.112472 -0.023707
					CHANNELS 3 Zrotation Yrotation Xrotation
					JOINT rshoulder
					{
						OFFSET -0.113228 0.046853 -0.008472
						CHANNELS 3 Zrotation Yrotation Xrotation
						JOINT relbow
						{
							OFFSET -0.260127 -0.014369 -0.031269
							CHANNELS 3 Zrotation Yrotation Xrotation
							JOINT rwrist
							{
								OFFSET -0.269108 0.006794 -0.006027
								CHANNELS 3 Zrotation Yrotation Xrotation
								End Site
								{
									OFFSET 0.000000 0.000000 0.000000
								}
							}
						}
					}
				}
			}
		}
	}
}
MOTION
Frames: 8
Frame Time: 0.033333
-0.224843 -0.727098 0.856796 -55.350506 -9.677509 81.089292 15.928487 11.078565 -30.398920 -7.062071 16.362861 64.612121 -2.567198 5.459409 -8.710678 0.000000 -0.000000 0.000000 -5.277187 -4.324246 -45.717894 6.970079 -13.063519 39.000924 9.738648 6.055701 -7.841227 0.000000 -0.000000 0.000000 -6.128362 -0.578937 42.821598 -3.274567 -2.606701 6.181744 1.182614 -3.825199 0.523477 -12.156340 22.022403 0.463388 -6.661015 24.257517 -11.689926 -26.211749 0.069268 -0.781247 -35.401287 -4.365831 -4.713383 28.640888 -40.886946 -32.455701 6.025253 -6.936486 -26.668399 25.095036 -0.016070 4.991668 44.133876 4.996315 1.246299 -19.493707 35.773272 -35.405016 0.318893 7.946936 -31.368020 
-0.264032 -0.813870 0.830769 -51.407154 -11.383926 78.496322 17.182730 10.887990 -30.119748 -9.728523 14.794915 52.504091 -3.301209 5.327818 -9.225615 0.000000 -0.000000 0.000000 -6.581040 -4.166781 -42.836200 6.345393 -9.899740 41.509169 3.852506 7.277625 -6.038949 0.000000 -0.000000 0.000000 -6.451166 0.025515 43.301418 -3.632759 -2.888534 7.145367 0.907822 -3.772859 0.225662 -11.590229 21.923115 1.733271 -4.176408 21.884689 -11.758758 -26.284052 -0.644310 -1.234343 -33.420782 -4.700069 -4.344611 30.090504 -43.707025 -32.541230 4.704895 -7.465364 -27.421554 26.724977 0.222627 5.455937 45.272506 4.573494 0.475645 -17.740687 32.042957 -35.143608 -0.832287 6.928998 -34.252088 
-0.297189 -0.896987 0.797529 -49.008112 -11.181714 76.590767 19.081294 11.961775 -31.167789 -11.054145 11.188698 40.802494 -7.193863 2.656335 -6.809274 0.000000 -0.000000 0.000000 -9.154256 -3.117107 -50.030746 4.126400 -7.814582 63.560294 -0.455458 2.815510 -14.733828 0.000000 -0.000000 0.000000 -6.514111 -0.231680 44.291129 -3.750478 -0.775767 6.779503 0.703322 -2.943238 0.239720 -10.033249 21.334014 0.530948 -2.559604 19.199467 -10.385326 -26.147289 -1.655578 -2.290781 -32.069664 -5.263952 -2.921348 32.751324 -46.431389 -32.699000 4.795693 -7.334456 -28.366111 27.029095 1.840928 4.912540 46.480175 4.781194 0.123026 -17.046164 26.301749 -37.081306 -0.202192 6.347535 -30.762629 
-0.325092 -0.976249 0.771901 -49.590656 -7.711596 73.013902 22.473931 14.833258 -29.074042 -10.263006 4.975638 29.342049 -9.638555 0.829764 -4.589344 0.000000 -0.000000 0.000000 -9.235876 -4.169583 -47.579139 2.906334 -10.670106 71.247609 -5.710300 0.185711 -18.684069 0.000000 -0.000000 0.000000 -4.302599 -0.963811 48.663675 -4.297424 1.460082 8.650626 0.822497 -1.474760 -1.030111 -10.825314 20.091412 -2.186477 -2.156687 18.251245 -12.973678 -27.055802 -4.237228 -2.885504 -30.516524 -4.684011 -3.561272 37.684053 -49.431104 -36.264777 7.167876 -6.406474 -30.988929 27.617250 6.791501 5.534492 43.258204 6.160711 -3.019070 -15.303685 24.105789 -37.654470 -1.791591 6.340236 -29.547923 
-0.348142 -1.053439 0.743508 -48.315805 -6.728801 72.083806 20.401068 15.981497 -32.930632 -9.711161 1.569243 27.221490 -9.452496 0.543320 -2.604374 0.000000 -0.000000 0.000000 -10.570022 -8.690137 -49.140908 1.546998 -9.515955 80.865593 -7.364696 -3.510158 -23.689895 0.000000 -0.000000 0.000000 -4.302895 0.128418 49.228762 -3.974961 0.875657 10.676343 1.856441 -1.229686 -2.631243 -9.093981 19.102542 -3.285071 -1.502678 19.168046 -12.952362 -27.153988 -6.206516 -2.326032 -28.857023 -3.820614 -4.766759 39.401497 -51.088970 -37.499503 8.905126 -6.111216 -30.540066 27.267961 10.755944 7.044485 40.278560 7.925769 -4.798482 -15.251280 24.967100 -39.905408 -3.492604 6.934504 -28.332573 
-0.363768 -1.127846 0.717996 -50.981137 -5.508627 72.713746 20.995531 15.206467 -35.552507 -11.203087 2.783067 31.746678 -10.911065 -1.474975 2.149215 0.000000 -0.000000 0.000000 -13.561145 -9.004173 -51.402985 -0.802275 -10.770864 89.385706 -6.260055 -2.706436 -26.278134 0.000000 -0.000000 0.000000 -3.772541 1.439129 50.532743 -4.009937 1.544659 9.381430 1.618559 -0.816481 -3.963235 -7.367876 19.545356 -2.175063 -1.204225 19.613394 -14.274599 -26.553997 -7.802427 -2.102198 -27.692845 -2.950287 -4.813852 38.677394 -50.396362 -38.194277 7.468003 -6.896404 -29.626268 26.247614 11.973664 6.246947 38.444705 9.041829 -5.209200 -17.682367 29.947834 -40.433661 -2.141296 7.185740 -29.069594 
-0.375307 -1.198688 0.698199 -54.912204 -4.833474 71.769061 23.688833 14.899106 -41.586713 -10.898178 5.908091 51.194658 -11.499780 -1.290346 4.528296 0.000000 -0.000000 0.000000 -15.290167 -9.695180 -51.641076 -0.149639 -9.111439 94.552764 -6.296307 -2.764571 -27.226055 0.000000 -0.000000 0.000000 -4.114417 3.603727 52.576824 -3.713365 1.788540 10.223156 1.815447 -0.273592 -5.342596 -6.964284 20.128041 -2.862704 -1.157008 21.128937 -16.286620 -27.426825 -10.260553 -0.825413 -24.753502 -1.652698 -6.355335 37.967517 -48.815116 -40.043547 6.811486 -7.716571 -29.091149 26.752837 14.732319 6.949804 33.098278 10.573127 -7.400265 -20.804192 34.981178 -42.264719 -0.010772 7.907859 -29.089808 
-0.381526 -1.259464 0.689419 -57.722187 -6.161632 71.235466 22.100861 16.047379 -43.129876 -9.870881 7.050531 59.742546 -6.502928 -1.044840 -0.350588 0.000000 -0.000000 0.000000 -17.698154 -11.816378 -51.843564 1.123287 -6.455442 96.510923 -5.222389 -3.606702 -27.393252 0.000000 -0.000000 0.000000 -4.588081 6.285010 54.973006 -4.281521 1.261876 11.813462 2.010441 -0.571026 -6.214084 -7.344720 20.799691 -5.663113 -1.970269 21.486929 -17.286514 -27.842045 -13.183243 -0.677811 -19.644557 -1.579565 -7.368939 33.604874 -47.026927 -39.095129 8.700638 -7.318090 -26.552439 27.172052 17.534024 6.740338 28.885250 12.476962 -7.079718 -24.722402 37.270204 -48.007611 -1.817509 7.589646 -28.687639 
